<?xml version="1.0" encoding="utf-8"?>
<!-- Generator: Adobe Illustrator 16.0.0, SVG Export Plug-In . SVG Version: 6.00 Build 0)  -->
<!DOCTYPE svg PUBLIC "-//W3C//DTD SVG 1.0//EN" "http://www.w3.org/TR/2001/REC-SVG-20010904/DTD/svg10.dtd">
<svg version="1.0" xmlns="http://www.w3.org/2000/svg" xmlns:xlink="http://www.w3.org/1999/xlink" x="0px" y="0px" width="1024px"
	 height="1024px" viewBox="0 0 1024 1024" enable-background="new 0 0 1024 1024" xml:space="preserve">
<g id="Background">
	<rect fill="#141414" width="1024" height="1024"/>
</g>
<g id="Layer_4">
	<defs>
		<filter id="Adobe_OpacityMaskFilter" filterUnits="userSpaceOnUse" x="159.273" y="43.53" width="673.304" height="921.939">
			<feFlood  style="flood-color:white;flood-opacity:1" result="back"/>
			<feBlend  in="SourceGraphic" in2="back" mode="normal"/>
		</filter>
	</defs>
	<mask maskUnits="userSpaceOnUse" x="159.273" y="43.53" width="673.304" height="921.939" id="SVGID_1_">
		<g filter="url(#Adobe_OpacityMaskFilter)">
			<g>
				<path d="M618.396,374.686c19.438,0,35.183,15.765,35.183,35.182c0,19.44-15.745,35.185-35.183,35.185
					c-19.438,0-35.184-15.745-35.184-35.185C583.213,390.451,598.958,374.686,618.396,374.686z"/>
				<polyline fill="none" stroke="#000000" stroke-width="45.7577" stroke-miterlimit="10" points="238.446,374.259 
					183.031,399.519 182.158,485.09 255.605,548.597 401.41,488.184 401.41,464.595 				"/>
				<polyline fill="none" stroke="#000000" stroke-width="45.7577" stroke-miterlimit="10" points="743.77,344.797 809.412,308.686 
					808.828,258.09 745.32,204.023 				"/>
				<path fill="none" stroke="#000000" stroke-width="45.7577" stroke-miterlimit="10" d="M579.041,512.829l-24.024-6.569
					l-167.514-45.439l-38.361-47.633l-71.482,22.505l-2.22-3.105l-38.797-47.633c0,0,2.51-20.098,10.158-41.556l3.075-21.511
					l-11.017-5.073l-32.433-41.689l2.653-17.198l-19.199-5.978l13.237-46.963l31.759-102.555l30.452,1.31
					c0,0-1.343-7.944,12.563-12.562c13.874-4.636,28.453-6.617,28.453-6.617s41.84-14.947,65.458-20.439
					c23.617-5.494,75.702-15.958,75.702-15.958s31.089-4.635,43.67-4.635l40.342,2.653l47.861,20.524l83.576,33.07l29.126,29.764
					l54.348,40.225l4.559,91.545l-7.885,33.466l7.885,32.88l-45.5,108.048l-24.175,48.89l-56.054,31.102L579.041,512.829z"/>
			</g>
		</g>
	</mask>
	<g mask="url(#SVGID_1_)">
		<g>
			<path fill="#FFFFFF" d="M424.148,487.702l330.868-148.785c0,0,23.297,17.856,27.26,25.804
				c3.966,7.926,9.663,30.004,10.986,40.586c1.83,14.648-14.951,32.352-14.951,32.352l-0.64,21.181l-43.029,41.017
				c0,0,15.218,29.123,18.523,50.938c3.325,21.852,6.636,39.726,6.636,39.726s12.542,3.885,20.829,8.064
				c8.283,4.18,22.793,36.591,22.793,36.591l-14.516,10.903l-2.786,22.884l20.051,35.974c0,0,11.806,18.947,18.948,29.112
				c5.782,8.227,7.456,26.51,7.456,26.51l-15.216,7.614l-15.232-4.98l-35.391,17.541v7.608l-17.87,9.268l-21.682-18.058
				l-16.203-12.085l-13.182-12.048l-11.899-12.844l-21.163-26.461l-15.89,5.279l-40.579,17.65l-42.344-45.869
				c0,0,1.327-15.988,8.6-25.915c7.272-9.924,13.251-13.907,13.251-13.907l1.312-20.491c0,0,14.543-9.268,20.508-10.597
				l-22.944-17.199l-2.438-16.765l-25.562-4.852l-22.055-1.764l-26.116-17.692l-29.913,10.857l-48.075,28.021l-22.534,25.825
				c-24.473,17.199-29.125,17.868-29.125,17.868s21.852,47.618,23.834,54.923l14.561,30.421c0,0,20.509,15.213,29.108,25.815
				c0,0,25.813,33.066,25.813,38.372l-31.936,15.84l17.539,57.607c0,0,11.237,21.831,13.236,31.758
				c1.982,9.925,2.654,23.158,2.654,23.158l-16.561,9.259l-8.6-8.602l-40.525,15.881l-4.62,15.22l-21.852,9.252l-35.707-21.835
				l-10.404-9.366l-10.121-9.819l-12.563-11.904l-22.506-26.472l-48.306,20.528l-33.091-31.125c0,0-1.979-25.795,5.31-34.398
				c7.273-8.598,23.161-20.509,23.161-20.509l0.655-15.213l0.674-14.565l18.525-15.218l7.272-18.524c0,0-12.563-35.07-15.874-46.959
				c-3.326-11.927-7.944-40.378-7.944-40.378l-13.909-39.692l-22.487,2.642c0,0-19.933-11.348-29.295-29.521
				c-4.888-9.483-13.387-29.937-15.028-35.982c-5.295-19.491-0.802-41.789-0.802-41.789l43.798-19.751l3.293-20.49l252.094-32.94"/>
		</g>
		<polyline fill="#FFFFFF" points="307.703,342.69 183.031,399.519 182.158,485.09 255.606,548.597 401.41,488.184 401.41,452.188 
					"/>
		<path fill="#FFFFFF" d="M745.32,204.023c0,0,3.226,44.467,3.226,57.701c0,13.218-7.724,28.519-7.724,28.519l-7.044,60.05
			l75.639-41.607l-0.586-50.596L745.32,204.023z"/>
		<path fill="#FFFFFF" d="M579.047,512.829l-24.027-6.569l-167.517-45.439l-38.36-47.633l-71.483,22.505l-2.22-3.105l-38.797-47.633
			c0,0,2.51-20.098,10.158-41.556l3.076-21.511l-11.018-5.073l-32.433-41.689l2.653-17.198l-19.199-5.978l13.238-46.963
			l31.76-102.555l30.451,1.31c0,0-1.342-7.944,12.563-12.562c13.875-4.636,28.452-6.617,28.452-6.617s41.84-14.947,65.458-20.439
			c23.618-5.494,75.702-15.958,75.702-15.958s31.089-4.635,43.67-4.635l40.343,2.653l47.86,20.524l83.576,33.07l29.126,29.764
			l54.351,40.225l4.556,91.545l-7.883,33.466l7.883,32.88l-45.5,108.048l-24.175,48.89l-56.054,31.102L579.047,512.829z"/>
	</g>
	<g>
	</g>
	<g>
	</g>
	<g>
	</g>
	<g>
	</g>
	<g>
	</g>
</g>
</svg>
